# xmcd CD database file
#
# Track frame offsets:
#	150
#	13630
#	26100
#	38660
#	53588
#	66455
#	79630
#	92408
#	107295
#	119455
#	129985
#	142425
#	154298
#	166233
#	177423
#	189408
#
# Disc length: 2682 seconds
#
# Revision: 2
# Processed by: cddbd v1.4b41PL1 Copyright (c) Steve Scherf et al.
# Submitted via: Feurio! 1.50.2ß - http://www.feurio.com
#
DISCID=d10a7810
DTITLE=King Curtis - 16 Original Hits
DYEAR=1900
DGENRE=
TTITLE0=Memphis Soul Stew
TTITLE1=Spanish Harlem
TTITLE2=Games People Play
TTITLE3=I Heard it Through The Grapevine
TTITLE4=Sweet Inspiration
TTITLE5=Soul Serenade
TTITLE6=Ode to Billy Joe
TTITLE7=You've Lost That Loving Feeling
TTITLE8=If I Were a Carpenter
TTITLE9=Instant Groove
TTITLE10=The Weight
TTITLE11=Harper Valley P.T.A.
TTITLE12=(Sittin' on) The Dock of The Bay
TTITLE13=Honey
TTITLE14=Everybody's Talking
TTITLE15=Valley of The Dolls
EXTD=
EXTT0=
EXTT1=
EXTT2=
EXTT3=
EXTT4=
EXTT5=
EXTT6=
EXTT7=
EXTT8=
EXTT9=
EXTT10=
EXTT11=
EXTT12=
EXTT13=
EXTT14=
EXTT15=
PLAYORDER=
